<?xml version="1.0" encoding="UTF-8" standalone="no"?>
<!DOCTYPE svg PUBLIC "-//W3C//DTD SVG 1.1//EN"
 "http://www.w3.org/Graphics/SVG/1.1/DTD/svg11.dtd">
<!-- Generated by graphviz version 2.42.4 (0)
 -->
<!-- Title: g Pages: 1 -->
<svg width="360pt" height="348pt"
 viewBox="0.0 0.0 1440.0 1392.36" xmlns="http://www.w3.org/2000/svg" xmlns:xlink="http://www.w3.org/1999/xlink">
<g id="graph0" class="graph" transform="scale(0.7 0.7) rotate(0) translate(4 489.74)">
<title>g</title>
<polygon fill="white" stroke="transparent" points="-4,4 -4,-489.74 506.64,-489.74 506.64,4 -4,4"/>
<!-- cc -->
<g id="node1" class="node">
<title>cc</title>
<ellipse fill="none" stroke="black" cx="61.09" cy="-467.74" rx="61.19" ry="18"/>
<text text-anchor="middle" x="61.09" y="-464.04" font-family="Arial" font-size="14.00">C++ sources</text>
</g>
<!-- linking -->
<g id="node10" class="node">
<title>linking</title>
<polygon fill="none" stroke="black" points="244.09,-252 98.09,-252 98.09,-216 244.09,-216 244.09,-252"/>
<text text-anchor="middle" x="171.09" y="-230.3" font-family="Arial" font-size="14.00">Compiling and linking</text>
</g>
<!-- cc&#45;&gt;linking -->
<g id="edge3" class="edge">
<title>cc&#45;&gt;linking</title>
<path fill="none" stroke="black" d="M60.68,-449.71C60.67,-416.05 64.65,-339.78 98.09,-288 105.82,-276.04 117.27,-265.89 128.82,-257.77"/>
<polygon fill="black" stroke="black" points="130.79,-260.66 137.2,-252.22 126.93,-254.82 130.79,-260.66"/>
</g>
<!-- m_cc -->
<g id="node2" class="node">
<title>m_cc</title>
<ellipse fill="none" stroke="black" cx="171.09" cy="-314.87" rx="63.89" ry="18"/>
<text text-anchor="middle" x="171.09" y="-311.17" font-family="Arial" font-size="14.00">*_m.cc/h files</text>
</g>
<!-- m_cc&#45;&gt;linking -->
<g id="edge4" class="edge">
<title>m_cc&#45;&gt;linking</title>
<path fill="none" stroke="black" d="M171.09,-296.76C171.09,-286.73 171.09,-273.84 171.09,-262.42"/>
<polygon fill="black" stroke="black" points="174.59,-262.08 171.09,-252.08 167.59,-262.08 174.59,-262.08"/>
</g>
<!-- msg -->
<g id="node3" class="node">
<title>msg</title>
<ellipse fill="none" stroke="black" cx="190.09" cy="-467.74" rx="50.09" ry="18"/>
<text text-anchor="middle" x="190.09" y="-464.04" font-family="Arial" font-size="14.00">MSG files</text>
</g>
<!-- opp_msgc -->
<g id="node9" class="node">
<title>opp_msgc</title>
<polygon fill="none" stroke="black" points="220.09,-413.74 140.09,-413.74 140.09,-377.74 220.09,-377.74 220.09,-413.74"/>
<text text-anchor="middle" x="180.09" y="-392.04" font-family="Arial" font-size="14.00">opp_msgc</text>
</g>
<!-- msg&#45;&gt;opp_msgc -->
<g id="edge1" class="edge">
<title>msg&#45;&gt;opp_msgc</title>
<path fill="none" stroke="black" d="M187.62,-449.44C186.52,-441.72 185.2,-432.45 183.97,-423.85"/>
<polygon fill="black" stroke="black" points="187.42,-423.25 182.54,-413.84 180.49,-424.24 187.42,-423.25"/>
</g>
<!-- ned -->
<g id="node4" class="node">
<title>ned</title>
<ellipse fill="none" stroke="black" cx="324.09" cy="-162" rx="47.39" ry="18"/>
<text text-anchor="middle" x="324.09" y="-158.3" font-family="Arial" font-size="14.00">NED files</text>
</g>
<!-- running -->
<g id="node11" class="node">
<title>running</title>
<polygon fill="none" stroke="black" points="357.59,-108 290.59,-108 290.59,-72 357.59,-72 357.59,-108"/>
<text text-anchor="middle" x="324.09" y="-86.3" font-family="Arial" font-size="14.00">Running</text>
</g>
<!-- ned&#45;&gt;running -->
<g id="edge8" class="edge">
<title>ned&#45;&gt;running</title>
<path fill="none" stroke="black" d="M324.09,-143.7C324.09,-135.98 324.09,-126.71 324.09,-118.11"/>
<polygon fill="black" stroke="black" points="327.59,-118.1 324.09,-108.1 320.59,-118.1 327.59,-118.1"/>
</g>
<!-- ini -->
<g id="node5" class="node">
<title>ini</title>
<ellipse fill="none" stroke="black" cx="446.09" cy="-162" rx="56.59" ry="18"/>
<text text-anchor="middle" x="446.09" y="-158.3" font-family="Arial" font-size="14.00">omnetpp.ini</text>
</g>
<!-- ini&#45;&gt;running -->
<g id="edge9" class="edge">
<title>ini&#45;&gt;running</title>
<path fill="none" stroke="black" d="M419.92,-145.98C403.32,-136.45 381.53,-123.95 362.93,-113.28"/>
<polygon fill="black" stroke="black" points="364.5,-110.15 354.09,-108.21 361.02,-116.22 364.5,-110.15"/>
</g>
<!-- libs -->
<g id="node6" class="node">
<title>libs</title>
<ellipse fill="none" stroke="black" cx="358.09" cy="-314.87" rx="105.22" ry="26.74"/>
<text text-anchor="middle" x="358.09" y="-318.67" font-family="Arial" font-size="14.00">Simulation kernel and</text>
<text text-anchor="middle" x="358.09" y="-303.67" font-family="Arial" font-size="14.00">user interface libraries</text>
</g>
<!-- libs&#45;&gt;linking -->
<g id="edge5" class="edge">
<title>libs&#45;&gt;linking</title>
<path fill="none" stroke="black" d="M305.01,-291.48C278.56,-280.33 246.77,-266.92 220.81,-255.97"/>
<polygon fill="black" stroke="black" points="222.1,-252.71 211.52,-252.05 219.38,-259.16 222.1,-252.71"/>
</g>
<!-- prog -->
<g id="node7" class="node">
<title>prog</title>
<ellipse fill="none" stroke="black" cx="171.09" cy="-162" rx="87.99" ry="18"/>
<text text-anchor="middle" x="171.09" y="-158.3" font-family="Arial" font-size="14.00">Simulation program</text>
</g>
<!-- prog&#45;&gt;running -->
<g id="edge7" class="edge">
<title>prog&#45;&gt;running</title>
<path fill="none" stroke="black" d="M205.43,-145.29C227.83,-135.04 257.25,-121.58 281.19,-110.63"/>
<polygon fill="black" stroke="black" points="282.76,-113.76 290.4,-106.42 279.85,-107.39 282.76,-113.76"/>
</g>
<!-- result -->
<g id="node8" class="node">
<title>result</title>
<ellipse fill="none" stroke="black" cx="324.09" cy="-18" rx="53.89" ry="18"/>
<text text-anchor="middle" x="324.09" y="-14.3" font-family="Arial" font-size="14.00">Result files</text>
</g>
<!-- opp_msgc&#45;&gt;m_cc -->
<g id="edge2" class="edge">
<title>opp_msgc&#45;&gt;m_cc</title>
<path fill="none" stroke="black" d="M178.14,-377.63C176.99,-367.5 175.5,-354.44 174.18,-342.94"/>
<polygon fill="black" stroke="black" points="177.65,-342.49 173.04,-332.95 170.7,-343.28 177.65,-342.49"/>
</g>
<!-- linking&#45;&gt;prog -->
<g id="edge6" class="edge">
<title>linking&#45;&gt;prog</title>
<path fill="none" stroke="black" d="M171.09,-215.7C171.09,-207.98 171.09,-198.71 171.09,-190.11"/>
<polygon fill="black" stroke="black" points="174.59,-190.1 171.09,-180.1 167.59,-190.1 174.59,-190.1"/>
</g>
<!-- running&#45;&gt;result -->
<g id="edge10" class="edge">
<title>running&#45;&gt;result</title>
<path fill="none" stroke="black" d="M324.09,-71.7C324.09,-63.98 324.09,-54.71 324.09,-46.11"/>
<polygon fill="black" stroke="black" points="327.59,-46.1 324.09,-36.1 320.59,-46.1 327.59,-46.1"/>
</g>
</g>
</svg>
