<?xml version="1.0" encoding="UTF-8" standalone="no"?>
<!DOCTYPE svg PUBLIC "-//W3C//DTD SVG 1.1//EN"
 "http://www.w3.org/Graphics/SVG/1.1/DTD/svg11.dtd">
<!-- Generated by graphviz version 2.42.4 (0)
 -->
<!-- Title: g Pages: 1 -->
<svg width="266pt" height="277pt"
 viewBox="0.0 0.0 1062.0 1108.0" xmlns="http://www.w3.org/2000/svg" xmlns:xlink="http://www.w3.org/1999/xlink">
<g id="graph0" class="graph" transform="scale(1 1) rotate(0) translate(4 273)">
<title>g</title>
<polygon fill="white" stroke="transparent" points="-4,4 -4,-273 261.5,-273 261.5,4 -4,4"/>
<!-- cStatistic -->
<g id="node1" class="node">
<title>cStatistic</title>
<polygon fill="none" stroke="black" points="177.5,-269 106.5,-269 106.5,-233 177.5,-233 177.5,-269"/>
<text text-anchor="middle" x="142" y="-247.3" font-family="Arial" font-size="14.00">cStatistic</text>
</g>
<!-- cStdDev -->
<g id="node2" class="node">
<title>cStdDev</title>
<polygon fill="none" stroke="black" points="176,-196 108,-196 108,-160 176,-160 176,-196"/>
<text text-anchor="middle" x="142" y="-174.3" font-family="Arial" font-size="14.00">cStdDev</text>
</g>
<!-- cStatistic&#45;&gt;cStdDev -->
<g id="edge1" class="edge">
<title>cStatistic&#45;&gt;cStdDev</title>
<path fill="none" stroke="black" d="M142,-222.75C142,-213.77 142,-204.03 142,-196.03"/>
<polygon fill="black" stroke="black" points="138.5,-222.81 142,-232.81 145.5,-222.81 138.5,-222.81"/>
</g>
<!-- cAbstractHistogram -->
<g id="node3" class="node">
<title>cAbstractHistogram</title>
<polygon fill="none" stroke="black" points="209.5,-123 74.5,-123 74.5,-87 209.5,-87 209.5,-123"/>
<text text-anchor="middle" x="142" y="-101.3" font-family="Arial" font-size="14.00">cAbstractHistogram</text>
</g>
<!-- cStdDev&#45;&gt;cAbstractHistogram -->
<g id="edge2" class="edge">
<title>cStdDev&#45;&gt;cAbstractHistogram</title>
<path fill="none" stroke="black" d="M142,-149.75C142,-140.77 142,-131.03 142,-123.03"/>
<polygon fill="black" stroke="black" points="138.5,-149.81 142,-159.81 145.5,-149.81 138.5,-149.81"/>
</g>
<!-- cHistogram -->
<g id="node4" class="node">
<title>cHistogram</title>
<polygon fill="none" stroke="black" points="86,-36 0,-36 0,0 86,0 86,-36"/>
<text text-anchor="middle" x="43" y="-14.3" font-family="Arial" font-size="14.00">cHistogram</text>
</g>
<!-- cAbstractHistogram&#45;&gt;cHistogram -->
<g id="edge3" class="edge">
<title>cAbstractHistogram&#45;&gt;cHistogram</title>
<path fill="none" stroke="black" d="M114.32,-80.23C98.01,-66.23 77.76,-48.84 63,-36.18"/>
<polygon fill="black" stroke="black" points="112.1,-82.94 121.97,-86.8 116.66,-77.63 112.1,-82.94"/>
</g>
<!-- cPSquare -->
<g id="node5" class="node">
<title>cPSquare</title>
<polygon fill="none" stroke="black" points="180,-36 104,-36 104,0 180,0 180,-36"/>
<text text-anchor="middle" x="142" y="-14.3" font-family="Arial" font-size="14.00">cPSquare</text>
</g>
<!-- cAbstractHistogram&#45;&gt;cPSquare -->
<g id="edge4" class="edge">
<title>cAbstractHistogram&#45;&gt;cPSquare</title>
<path fill="none" stroke="black" d="M142,-76.73C142,-63.42 142,-47.81 142,-36.18"/>
<polygon fill="black" stroke="black" points="138.5,-76.8 142,-86.8 145.5,-76.8 138.5,-76.8"/>
<text text-anchor="middle" x="152.5" y="-57.8" font-family="Arial" font-size="14.00">(...)</text>
</g>
<!-- cKSplit -->
<g id="node6" class="node">
<title>cKSplit</title>
<polygon fill="none" stroke="black" points="257.5,-36 198.5,-36 198.5,0 257.5,0 257.5,-36"/>
<text text-anchor="middle" x="228" y="-14.3" font-family="Arial" font-size="14.00">cKSplit</text>
</g>
<!-- cAbstractHistogram&#45;&gt;cKSplit -->
<g id="edge5" class="edge">
<title>cAbstractHistogram&#45;&gt;cKSplit</title>
<path fill="none" stroke="black" d="M166.82,-79.47C180.85,-65.6 198.04,-48.61 210.62,-36.18"/>
<polygon fill="black" stroke="black" points="164.06,-77.28 159.4,-86.8 168.98,-82.26 164.06,-77.28"/>
<text text-anchor="middle" x="200.5" y="-57.8" font-family="Arial" font-size="14.00">(...)</text>
</g>
</g>
</svg>
