<?xml version="1.0" encoding="UTF-8" standalone="no"?>
<!DOCTYPE svg PUBLIC "-//W3C//DTD SVG 1.1//EN"
 "http://www.w3.org/Graphics/SVG/1.1/DTD/svg11.dtd">
<!-- Generated by graphviz version 2.42.4 (0)
 -->
<!-- Title: g Pages: 1 -->
<svg width="360pt" height="118pt"
 viewBox="0.0 0.0 720.0 236.58" xmlns="http://www.w3.org/2000/svg" xmlns:xlink="http://www.w3.org/1999/xlink">
<g id="graph0" class="graph" transform="scale(0.65 0.65) rotate(0) translate(4 178)">
<title>g</title>
<polygon fill="white" stroke="transparent" points="-4,4 -4,-178 549.9,-178 549.9,4 -4,4"/>
<!-- pkdrop -->
<g id="node1" class="node">
<title>pkdrop</title>
<polygon fill="none" stroke="black" points="72,-112 0,-112 0,-62 72,-62 72,-112"/>
<text text-anchor="middle" x="36" y="-83.3" font-family="Arial" font-size="14.00">pkdrop</text>
</g>
<!-- packetBytes -->
<g id="node2" class="node">
<title>packetBytes</title>
<ellipse fill="none" stroke="black" cx="155.49" cy="-87" rx="47.48" ry="47.48"/>
<text text-anchor="middle" x="155.49" y="-83.3" font-family="Arial" font-size="14.00">packetBytes</text>
</g>
<!-- pkdrop&#45;&gt;packetBytes -->
<g id="edge1" class="edge">
<title>pkdrop&#45;&gt;packetBytes</title>
<path fill="none" stroke="black" d="M72.25,-87C80.31,-87 89.09,-87 97.8,-87"/>
<polygon fill="black" stroke="black" points="97.95,-90.5 107.95,-87 97.95,-83.5 97.95,-90.5"/>
</g>
<!-- expr1 -->
<g id="node3" class="node">
<title>expr1</title>
<ellipse fill="none" stroke="black" cx="276.44" cy="-87" rx="37.43" ry="37.43"/>
<text text-anchor="middle" x="276.44" y="-83.3" font-family="Arial" font-size="14.00">f(x) = x*8</text>
</g>
<!-- packetBytes&#45;&gt;expr1 -->
<g id="edge2" class="edge">
<title>packetBytes&#45;&gt;expr1</title>
<path fill="none" stroke="black" d="M203.16,-87C211.58,-87 220.36,-87 228.78,-87"/>
<polygon fill="black" stroke="black" points="228.83,-90.5 238.83,-87 228.83,-83.5 228.83,-90.5"/>
</g>
<!-- sum -->
<g id="node4" class="node">
<title>sum</title>
<ellipse fill="none" stroke="black" cx="389.9" cy="-134" rx="36" ry="36"/>
<text text-anchor="middle" x="389.9" y="-130.3" font-family="Arial" font-size="14.00">sum</text>
</g>
<!-- expr1&#45;&gt;sum -->
<g id="edge4" class="edge">
<title>expr1&#45;&gt;sum</title>
<path fill="none" stroke="black" d="M311.18,-101.23C322.51,-106 335.28,-111.39 347.14,-116.39"/>
<polygon fill="black" stroke="black" points="345.84,-119.64 356.42,-120.3 348.56,-113.19 345.84,-119.64"/>
</g>
<!-- sumrec -->
<g id="node5" class="node">
<title>sumrec</title>
<ellipse fill="none" stroke="black" cx="389.9" cy="-40" rx="36" ry="36"/>
<ellipse fill="none" stroke="black" cx="389.9" cy="-40" rx="40" ry="40"/>
<text text-anchor="middle" x="389.9" y="-36.3" font-family="Arial" font-size="14.00">sum</text>
</g>
<!-- expr1&#45;&gt;sumrec -->
<g id="edge3" class="edge">
<title>expr1&#45;&gt;sumrec</title>
<path fill="none" stroke="black" d="M311.18,-72.77C321.29,-68.51 332.55,-63.76 343.29,-59.23"/>
<polygon fill="black" stroke="black" points="344.7,-62.44 352.56,-55.33 341.98,-55.99 344.7,-62.44"/>
</g>
<!-- vector -->
<g id="node6" class="node">
<title>vector</title>
<ellipse fill="none" stroke="black" cx="505.9" cy="-134" rx="36" ry="36"/>
<ellipse fill="none" stroke="black" cx="505.9" cy="-134" rx="40" ry="40"/>
<text text-anchor="middle" x="505.9" y="-130.3" font-family="Arial" font-size="14.00">vector</text>
</g>
<!-- sum&#45;&gt;vector -->
<g id="edge5" class="edge">
<title>sum&#45;&gt;vector</title>
<path fill="none" stroke="black" d="M426.04,-134C435.36,-134 445.6,-134 455.53,-134"/>
<polygon fill="black" stroke="black" points="455.71,-137.5 465.71,-134 455.71,-130.5 455.71,-137.5"/>
</g>
</g>
</svg>
